<?xml version="1.0" standalone="no"?>
<!DOCTYPE svg PUBLIC "-//W3C//DTD SVG 20010904//EN"
 "http://www.w3.org/TR/2001/REC-SVG-20010904/DTD/svg10.dtd">
<svg version="1.0" xmlns="http://www.w3.org/2000/svg"
 width="512.000000pt" height="512.000000pt" viewBox="0 0 512.000000 512.000000"
 preserveAspectRatio="xMidYMid meet">
<metadata>
Created by potrace 1.11, written by Peter Selinger 2001-2013
</metadata>
<g transform="translate(0.000000,512.000000) scale(0.100000,-0.100000)"
fill="#000000" stroke="none">
<path d="M2500 5113 c-319 -31 -529 -63 -784 -120 -441 -97 -705 -240 -908
-492 -158 -196 -263 -412 -327 -672 -37 -152 -54 -201 -116 -343 -85 -195 -75
-264 57 -401 43 -45 78 -90 78 -99 0 -59 -235 -451 -390 -651 -73 -94 -97
-138 -106 -194 -14 -89 54 -180 187 -250 102 -54 129 -77 129 -113 0 -18 -21
-71 -47 -122 -33 -65 -46 -104 -47 -135 -1 -40 3 -47 58 -98 54 -50 58 -56 47
-79 -6 -14 -11 -47 -11 -73 0 -61 20 -87 112 -146 l70 -46 -5 -67 c-19 -214
-19 -228 -3 -295 41 -176 146 -275 301 -284 60 -4 96 2 245 42 96 25 262 75
369 110 l194 64 28 -20 c107 -76 236 -296 299 -510 14 -48 31 -82 48 -98 l26
-24 1098 5 1099 4 26 27 c48 47 35 96 -73 267 -96 153 -179 407 -219 670 -9
58 -18 120 -21 139 -12 74 -86 104 -141 57 -25 -21 -28 -30 -26 -76 4 -82 40
-282 79 -430 41 -156 100 -312 156 -407 21 -36 36 -68 33 -71 -2 -3 -436 -7
-963 -10 l-957 -5 -19 59 c-41 132 -147 327 -239 437 -22 26 -38 50 -35 52 2
3 76 29 164 60 87 30 191 71 231 89 212 101 331 239 336 392 2 65 -27 104 -78
104 -39 0 -85 -34 -85 -61 0 -106 -80 -200 -231 -272 -176 -85 -1053 -374
-1267 -418 -168 -35 -251 97 -208 331 19 103 12 166 -25 226 -24 39 -82 92
-115 104 -29 11 -30 27 -4 60 22 28 26 89 8 111 -10 12 -72 62 -117 96 -2 1
13 36 34 77 90 178 46 314 -132 404 -67 35 -143 88 -143 101 0 5 46 71 102
147 137 186 227 329 320 511 66 128 78 160 78 200 0 73 -39 144 -120 222 -84
80 -85 91 -34 206 58 129 91 225 124 355 56 225 111 356 215 515 201 307 449
457 927 559 208 44 450 82 652 101 190 18 279 19 417 4 159 -18 168 -17 195
15 45 51 23 118 -44 135 -94 25 -365 38 -502 24z"/>
<path d="M3375 5108 c-42 -23 -45 -36 -45 -199 0 -152 1 -159 24 -185 30 -36
86 -39 119 -6 21 21 22 33 25 182 l3 160 -30 30 c-31 31 -62 37 -96 18z"/>
<path d="M2234 4640 c-30 -12 -54 -49 -54 -84 0 -23 20 -49 103 -133 56 -58
115 -111 130 -119 52 -28 117 14 117 74 0 32 -12 48 -112 148 -113 113 -143
132 -184 114z"/>
<path d="M4530 4639 c-39 -15 -218 -199 -231 -236 -21 -64 43 -127 106 -103
38 15 214 187 231 227 19 45 2 91 -42 109 -18 8 -35 14 -36 13 -2 0 -14 -5
-28 -10z"/>
<path d="M1525 4589 c-272 -93 -470 -269 -607 -544 -58 -116 -130 -349 -130
-423 0 -47 35 -82 82 -82 55 0 73 27 109 168 37 147 75 243 139 345 121 195
255 303 470 378 103 35 129 62 117 119 -15 68 -63 79 -180 39z"/>
<path d="M3215 4501 c-298 -63 -549 -230 -716 -477 -272 -404 -257 -958 37
-1351 61 -80 103 -121 249 -238 181 -145 253 -224 269 -295 5 -21 -1 -30 -41
-55 -30 -20 -56 -49 -77 -85 -30 -53 -31 -61 -34 -187 -3 -103 0 -143 12 -181
20 -58 70 -120 119 -147 30 -16 36 -25 41 -64 17 -125 87 -225 194 -278 50
-25 68 -28 147 -27 74 0 99 4 140 24 108 52 195 177 195 278 0 35 5 41 52 72
64 43 104 104 119 185 15 77 6 248 -15 297 -20 47 -70 104 -107 124 -35 17
-36 32 -8 86 31 60 108 138 244 246 152 121 218 188 289 294 145 219 204 436
193 712 -7 179 -36 298 -111 451 -64 130 -131 223 -234 323 -134 129 -315 231
-499 278 -135 36 -330 42 -458 15z m341 -162 c358 -63 649 -333 761 -704 24
-82 27 -105 27 -260 0 -187 -11 -248 -74 -398 -66 -160 -164 -279 -340 -412
-52 -40 -132 -111 -177 -158 l-83 -87 0 375 0 375 53 0 c155 0 270 95 284 234
20 199 -188 340 -368 249 -60 -31 -112 -92 -129 -151 -5 -20 -10 -65 -10 -99
l0 -63 -85 0 -85 0 0 58 c0 75 -13 120 -53 178 -60 89 -176 126 -291 92 -55
-16 -138 -99 -154 -154 -34 -115 3 -231 92 -291 58 -40 103 -53 179 -53 l57 0
0 -377 0 -377 -71 78 c-39 42 -110 107 -158 144 -204 158 -264 223 -345 381
-160 310 -143 693 43 982 59 93 175 216 256 274 113 81 283 152 400 168 63 8
214 7 271 -4z m-435 -942 c27 -21 39 -54 39 -106 l0 -51 -51 0 c-79 0 -118 29
-119 88 0 63 82 107 131 69z m694 -12 c32 -31 32 -75 2 -111 -20 -23 -34 -28
-85 -32 l-62 -4 0 61 c0 52 4 66 25 86 33 34 87 34 120 0z m-315 -785 l0 -470
-85 0 -85 0 0 470 0 470 85 0 85 0 0 -470z m224 -661 c25 -20 26 -23 26 -139
0 -65 -3 -126 -6 -135 -16 -40 -51 -45 -338 -45 l-275 0 -28 24 c-27 23 -28
29 -31 126 -4 117 0 142 30 170 21 19 34 20 309 20 275 0 287 -1 313 -21z
m-147 -524 c-20 -123 -183 -177 -276 -92 -24 22 -60 91 -61 115 0 9 41 12 171
12 l172 0 -6 -35z"/>
<path d="M1755 3488 c-52 -28 -62 -92 -20 -133 24 -24 27 -25 185 -25 158 0
161 1 185 25 41 40 33 105 -16 130 -34 18 -302 21 -334 3z"/>
<path d="M4740 3487 c-54 -27 -61 -99 -13 -137 23 -18 41 -20 179 -20 84 0
160 3 169 6 19 8 45 55 45 84 0 12 -13 35 -29 51 l-29 29 -149 0 c-99 0 -156
-4 -173 -13z"/>
<path d="M719 3397 c-62 -48 -40 -137 37 -153 44 -9 94 35 94 82 0 65 -81 109
-131 71z"/>
</g>
</svg>
